<svg xmlns="http://www.w3.org/2000/svg" xmlns:xlink="http://www.w3.org/1999/xlink" width="500" zoomAndPan="magnify" viewBox="0 0 375 374.999991" height="500" preserveAspectRatio="xMidYMid meet" version="1.0"><defs><clipPath id="c7117a6720"><path d="M 34.5 121 L 93 121 L 93 129 L 34.5 129 Z M 34.5 121 " clip-rule="nonzero"/></clipPath><clipPath id="871a219e17"><path d="M 34.5 137 L 93 137 L 93 145 L 34.5 145 Z M 34.5 137 " clip-rule="nonzero"/></clipPath><clipPath id="3e10eb226c"><path d="M 34.5 154 L 93 154 L 93 162 L 34.5 162 Z M 34.5 154 " clip-rule="nonzero"/></clipPath></defs><path fill="#837d7d" d="M 193.761719 139.617188 C 249.179688 137.375 297.296875 214.652344 299.539062 270.089844 C 301.78125 325.527344 258.671875 372.285156 203.257812 374.527344 C 147.84375 376.769531 121.714844 333.375 118 278.015625 C 110.332031 163.605469 138.347656 141.859375 193.761719 139.617188 Z M 193.761719 139.617188 " fill-opacity="1" fill-rule="nonzero"/><path fill="#2d1d05" d="M 227.464844 371.539062 C 227.464844 372.007812 227.375 372.460938 227.195312 372.894531 C 227.015625 373.328125 226.761719 373.710938 226.429688 374.042969 C 226.09375 374.378906 225.710938 374.632812 225.277344 374.8125 C 224.84375 374.992188 224.390625 375.082031 223.921875 375.082031 C 223.453125 375.082031 223 374.992188 222.566406 374.8125 C 222.132812 374.632812 221.746094 374.378906 221.414062 374.042969 C 221.082031 373.710938 220.828125 373.328125 220.648438 372.894531 C 220.46875 372.460938 220.378906 372.007812 220.378906 371.539062 C 220.378906 371.066406 220.46875 370.613281 220.648438 370.179688 C 220.828125 369.746094 221.082031 369.363281 221.414062 369.03125 C 221.746094 368.699219 222.132812 368.441406 222.566406 368.261719 C 223 368.082031 223.453125 367.992188 223.921875 367.992188 C 224.390625 367.992188 224.84375 368.082031 225.277344 368.261719 C 225.710938 368.441406 226.09375 368.699219 226.429688 369.03125 C 226.761719 369.363281 227.015625 369.746094 227.195312 370.179688 C 227.375 370.613281 227.464844 371.066406 227.464844 371.539062 Z M 200.511719 378.144531 C 173.871094 378.492188 152.945312 368.824219 137.734375 349.144531 C 124.21875 331.65625 116.460938 308.027344 114.464844 278.253906 C 111.492188 233.902344 113.992188 201.015625 121.960938 179.585938 C 129.4375 159.484375 142.898438 146.503906 162.335938 140.644531 C 162.789062 140.507812 163.246094 140.464844 163.714844 140.511719 C 164.183594 140.558594 164.621094 140.691406 165.035156 140.914062 C 165.449219 141.136719 165.804688 141.429688 166.105469 141.792969 C 166.402344 142.160156 166.617188 142.566406 166.753906 143.015625 C 166.890625 143.464844 166.933594 143.925781 166.886719 144.394531 C 166.839844 144.859375 166.707031 145.300781 166.484375 145.714844 C 166.261719 146.128906 165.96875 146.488281 165.605469 146.785156 C 165.238281 147.082031 164.832031 147.296875 164.382812 147.433594 C 147.191406 152.617188 135.265625 164.160156 128.605469 182.058594 C 120.988281 202.535156 118.632812 234.441406 121.539062 277.78125 C 123.4375 306.117188 130.707031 328.457031 143.34375 344.808594 C 157.109375 362.621094 176.136719 371.367188 200.417969 371.054688 C 200.890625 371.050781 201.34375 371.132812 201.777344 371.308594 C 202.214844 371.480469 202.601562 371.734375 202.9375 372.0625 C 203.273438 372.390625 203.535156 372.769531 203.722656 373.203125 C 203.90625 373.632812 204.003906 374.085938 204.007812 374.554688 C 204.015625 375.023438 203.929688 375.476562 203.757812 375.914062 C 203.582031 376.351562 203.332031 376.738281 203.003906 377.074219 C 202.675781 377.410156 202.296875 377.671875 201.863281 377.859375 C 201.433594 378.042969 200.980469 378.140625 200.511719 378.144531 Z M 190.105469 140.035156 C 190.105469 140.507812 190.015625 140.957031 189.835938 141.394531 C 189.65625 141.828125 189.398438 142.210938 189.066406 142.542969 C 188.734375 142.875 188.351562 143.132812 187.917969 143.3125 C 187.484375 143.492188 187.03125 143.582031 186.5625 143.582031 C 186.089844 143.582031 185.640625 143.492188 185.203125 143.3125 C 184.769531 143.132812 184.386719 142.875 184.054688 142.542969 C 183.722656 142.210938 183.464844 141.828125 183.285156 141.394531 C 183.105469 140.957031 183.015625 140.507812 183.015625 140.035156 C 183.015625 139.566406 183.105469 139.113281 183.285156 138.679688 C 183.464844 138.246094 183.722656 137.859375 184.054688 137.527344 C 184.386719 137.195312 184.769531 136.941406 185.203125 136.761719 C 185.640625 136.582031 186.089844 136.492188 186.5625 136.492188 C 187.03125 136.492188 187.484375 136.582031 187.917969 136.761719 C 188.351562 136.941406 188.734375 137.195312 189.066406 137.527344 C 189.398438 137.859375 189.65625 138.246094 189.835938 138.679688 C 190.015625 139.113281 190.105469 139.566406 190.105469 140.035156 Z M 193.621094 136.074219 C 207.613281 135.507812 221.488281 139.570312 235.246094 148.265625 C 247.601562 156.070312 259 167.019531 269.441406 181.113281 C 279.253906 194.363281 287.164062 208.90625 293.171875 224.742188 C 299.203125 240.636719 302.503906 255.707031 303.082031 269.945312 C 303.90625 290.347656 299.164062 309.304688 288.859375 326.824219 C 278.828125 343.878906 265.078125 357.011719 247.613281 366.214844 C 247.199219 366.433594 246.757812 366.566406 246.289062 366.609375 C 245.820312 366.652344 245.363281 366.605469 244.914062 366.464844 C 244.464844 366.324219 244.058594 366.105469 243.695312 365.804688 C 243.335938 365.503906 243.042969 365.148438 242.824219 364.730469 C 242.605469 364.316406 242.476562 363.871094 242.433594 363.40625 C 242.390625 362.9375 242.4375 362.476562 242.574219 362.027344 C 242.714844 361.578125 242.933594 361.175781 243.234375 360.8125 C 243.535156 360.449219 243.894531 360.160156 244.308594 359.941406 C 260.585938 351.363281 273.398438 339.125 282.75 323.226562 C 292.351562 306.90625 296.765625 289.242188 295.996094 270.234375 C 295.453125 256.761719 292.300781 242.4375 286.546875 227.257812 C 280.769531 212.035156 273.167969 198.058594 263.742188 185.335938 C 253.832031 171.953125 243.070312 161.59375 231.460938 154.257812 C 218.945312 146.351562 206.429688 142.652344 193.90625 143.160156 C 193.4375 143.179688 192.980469 143.105469 192.539062 142.945312 C 192.097656 142.78125 191.707031 142.542969 191.359375 142.222656 C 191.015625 141.90625 190.742188 141.53125 190.546875 141.105469 C 190.347656 140.679688 190.242188 140.230469 190.222656 139.761719 C 190.203125 139.289062 190.273438 138.835938 190.4375 138.394531 C 190.597656 137.953125 190.839844 137.558594 191.15625 137.214844 C 191.476562 136.867188 191.847656 136.597656 192.277344 136.398438 C 192.703125 136.203125 193.148438 136.09375 193.621094 136.074219 Z M 193.621094 136.074219 " fill-opacity="1" fill-rule="nonzero"/><path stroke-linecap="round" transform="matrix(1.181467, 0, 0, 1.18192, -70.476598, -54.836046)" fill-opacity="1" fill="#837d7d" fill-rule="nonzero" stroke-linejoin="round" d="M 260.243222 319.534591 L 258.933939 358.536956 C 258.606618 368.323076 250.331022 376.060092 240.547766 375.732897 C 230.761205 375.402396 223.024531 367.129969 223.351852 357.343849 L 220.753123 297.414192 " stroke="#2d1d05" stroke-width="6" stroke-opacity="1" stroke-miterlimit="10"/><path stroke-linecap="round" transform="matrix(1.181467, 0, 0, 1.18192, -70.476598, -54.836046)" fill-opacity="1" fill="#837d7d" fill-rule="nonzero" stroke-linejoin="round" d="M 195.112992 292.74422 L 196.309862 344.999655 C 196.610733 354.785775 188.847609 363.038372 179.064354 363.335823 C 169.277792 363.636578 161.02534 355.876426 160.754226 348.843376 L 159.557355 231.479341 " stroke="#2d1d05" stroke-width="6" stroke-opacity="1" stroke-miterlimit="10"/><path fill="#837d7d" d="M 297.085938 362.96875 C 245.152344 412.492188 190.875 383.78125 255.957031 344.71875 C 307.511719 313.769531 296.769531 274.851562 297.914062 262.351562 C 299.347656 246.757812 340.378906 321.683594 297.085938 362.96875 Z M 297.085938 362.96875 " fill-opacity="1" fill-rule="nonzero"/><path fill="#2d1d05" d="M 314.667969 342.929688 C 314.667969 343.402344 314.578125 343.855469 314.398438 344.289062 C 314.21875 344.722656 313.960938 345.105469 313.628906 345.4375 C 313.296875 345.769531 312.914062 346.027344 312.480469 346.207031 C 312.046875 346.386719 311.59375 346.476562 311.125 346.476562 C 310.652344 346.476562 310.199219 346.386719 309.765625 346.207031 C 309.332031 346.027344 308.949219 345.769531 308.617188 345.4375 C 308.285156 345.105469 308.027344 344.722656 307.847656 344.289062 C 307.667969 343.855469 307.578125 343.402344 307.578125 342.929688 C 307.578125 342.460938 307.667969 342.007812 307.847656 341.574219 C 308.027344 341.140625 308.285156 340.757812 308.617188 340.425781 C 308.949219 340.089844 309.332031 339.835938 309.765625 339.65625 C 310.199219 339.476562 310.652344 339.386719 311.125 339.386719 C 311.59375 339.386719 312.046875 339.476562 312.480469 339.65625 C 312.914062 339.835938 313.296875 340.089844 313.628906 340.425781 C 313.960938 340.757812 314.21875 341.140625 314.398438 341.574219 C 314.578125 342.007812 314.667969 342.460938 314.667969 342.929688 Z M 300.261719 364.828125 C 300.019531 365.0625 299.777344 365.300781 299.53125 365.535156 C 287.039062 377.445312 274.089844 385.5625 260.683594 389.878906 C 248.449219 393.816406 238.582031 393.9375 231.074219 390.246094 C 227.132812 388.304688 224.546875 385.507812 223.316406 381.847656 C 222.066406 378.136719 222.421875 374.050781 224.378906 369.589844 C 228.371094 360.492188 238.289062 351.1875 254.132812 341.675781 C 272.460938 330.675781 284.523438 317.546875 290.328125 302.285156 C 293.550781 293.800781 294.914062 282.953125 294.40625 269.738281 C 294.265625 265.992188 294.257812 263.421875 294.386719 262.027344 C 294.6875 258.742188 296.152344 256.972656 298.78125 256.722656 C 300.585938 256.550781 302.402344 257.441406 304.226562 259.390625 C 306.753906 262.089844 309.316406 266.464844 311.910156 272.511719 C 318.648438 288.207031 321.398438 304.144531 320.164062 320.328125 C 320.128906 320.796875 320.003906 321.242188 319.789062 321.660156 C 319.578125 322.078125 319.292969 322.441406 318.9375 322.75 C 318.582031 323.054688 318.179688 323.28125 317.730469 323.425781 C 317.285156 323.574219 316.828125 323.628906 316.359375 323.59375 C 315.890625 323.558594 315.445312 323.433594 315.027344 323.21875 C 314.609375 323.007812 314.246094 322.722656 313.9375 322.367188 C 313.632812 322.011719 313.40625 321.609375 313.261719 321.160156 C 313.113281 320.714844 313.058594 320.257812 313.09375 319.789062 C 314.242188 304.761719 311.675781 289.9375 305.398438 275.3125 C 303.128906 270.023438 301.011719 266.332031 299.050781 264.238281 C 298.757812 263.921875 298.535156 263.71875 298.375 263.617188 C 298.621094 263.773438 298.980469 263.828125 299.453125 263.78125 C 300.324219 263.699219 300.964844 263.308594 301.375 262.613281 L 301.445312 262.675781 C 301.34375 263.765625 301.359375 266.03125 301.492188 269.464844 C 302.035156 283.644531 300.519531 295.425781 296.953125 304.808594 C 290.566406 321.597656 277.511719 335.914062 257.777344 347.757812 C 243.226562 356.492188 234.253906 364.722656 230.867188 372.4375 C 228.511719 377.8125 229.621094 381.625 234.203125 383.882812 C 239.996094 386.730469 248.097656 386.480469 258.511719 383.128906 C 270.886719 379.140625 282.929688 371.566406 294.640625 360.402344 C 294.859375 360.191406 295.078125 359.980469 295.292969 359.765625 C 295.628906 359.4375 296.015625 359.183594 296.453125 359.007812 C 296.886719 358.832031 297.339844 358.746094 297.808594 358.75 C 298.28125 358.753906 298.730469 358.847656 299.164062 359.035156 C 299.597656 359.21875 299.976562 359.476562 300.308594 359.8125 C 300.636719 360.148438 300.890625 360.535156 301.066406 360.96875 C 301.242188 361.40625 301.328125 361.859375 301.320312 362.328125 C 301.316406 362.800781 301.222656 363.25 301.039062 363.683594 C 300.855469 364.117188 300.597656 364.496094 300.261719 364.828125 Z M 300.261719 364.828125 " fill-opacity="1" fill-rule="nonzero"/><path fill="#e4e6ea" d="M 83.074219 3.992188 L 159.882812 36.542969 C 163.191406 37.945312 163.742188 42.402344 160.875 44.566406 L 94.292969 94.835938 C 91.425781 97 87.292969 95.246094 86.851562 91.683594 L 76.625 8.863281 C 76.183594 5.296875 79.769531 2.59375 83.074219 3.992188 Z M 83.074219 3.992188 " fill-opacity="1" fill-rule="nonzero"/><path fill="#2d1d05" d="M 84.457031 0.730469 L 161.265625 33.277344 C 164.175781 34.511719 165.824219 36.699219 166.210938 39.835938 C 166.597656 42.972656 165.53125 45.492188 163.011719 47.394531 L 96.425781 97.664062 C 93.90625 99.570312 91.1875 99.90625 88.28125 98.671875 C 85.371094 97.4375 83.722656 95.253906 83.335938 92.117188 L 73.109375 9.296875 C 72.71875 6.160156 73.789062 3.640625 76.308594 1.734375 C 78.832031 -0.167969 81.546875 -0.503906 84.457031 0.730469 C 84.890625 0.914062 85.273438 1.171875 85.601562 1.507812 C 85.929688 1.84375 86.183594 2.226562 86.359375 2.664062 C 86.535156 3.097656 86.625 3.550781 86.621094 4.023438 C 86.617188 4.492188 86.523438 4.945312 86.339844 5.378906 C 86.15625 5.808594 85.894531 6.191406 85.5625 6.519531 C 85.226562 6.851562 84.839844 7.105469 84.40625 7.28125 C 83.96875 7.457031 83.515625 7.542969 83.046875 7.539062 C 82.578125 7.535156 82.125 7.441406 81.691406 7.257812 C 81.296875 7.089844 80.925781 7.136719 80.578125 7.394531 C 80.234375 7.65625 80.089844 8 80.144531 8.425781 L 90.371094 91.246094 C 90.421875 91.675781 90.648438 91.972656 91.046875 92.140625 C 91.441406 92.3125 91.8125 92.265625 92.15625 92.003906 L 158.738281 41.734375 C 159.082031 41.476562 159.230469 41.132812 159.175781 40.703125 C 159.125 40.277344 158.898438 39.976562 158.503906 39.808594 L 81.691406 7.257812 C 81.261719 7.074219 80.878906 6.816406 80.550781 6.480469 C 80.21875 6.144531 79.964844 5.761719 79.789062 5.324219 C 79.613281 4.890625 79.527344 4.4375 79.53125 3.964844 C 79.535156 3.496094 79.628906 3.042969 79.8125 2.609375 C 79.996094 2.179688 80.253906 1.796875 80.589844 1.464844 C 80.925781 1.136719 81.308594 0.882812 81.746094 0.707031 C 82.179688 0.53125 82.632812 0.445312 83.101562 0.449219 C 83.574219 0.453125 84.023438 0.546875 84.457031 0.730469 Z M 84.457031 0.730469 " fill-opacity="1" fill-rule="nonzero"/><path fill="#e4e6ea" d="M 274.863281 3.992188 L 198.054688 36.542969 C 194.75 37.945312 194.199219 42.402344 197.066406 44.566406 L 263.648438 94.835938 C 266.515625 97 270.648438 95.246094 271.089844 91.683594 L 281.316406 8.863281 C 281.753906 5.296875 278.171875 2.59375 274.863281 3.992188 Z M 274.863281 3.992188 " fill-opacity="1" fill-rule="nonzero"/><path fill="#2d1d05" d="M 276.246094 7.257812 L 199.4375 39.808594 C 199.039062 39.976562 198.816406 40.277344 198.761719 40.703125 C 198.710938 41.132812 198.855469 41.476562 199.199219 41.734375 L 265.785156 92.003906 C 266.128906 92.265625 266.496094 92.3125 266.894531 92.140625 C 267.292969 91.972656 267.515625 91.675781 267.570312 91.246094 L 277.796875 8.425781 C 277.851562 8 277.703125 7.65625 277.359375 7.394531 C 277.015625 7.136719 276.644531 7.089844 276.246094 7.257812 C 275.816406 7.441406 275.363281 7.535156 274.894531 7.539062 C 274.421875 7.542969 273.972656 7.457031 273.535156 7.28125 C 273.097656 7.105469 272.714844 6.851562 272.378906 6.519531 C 272.042969 6.191406 271.785156 5.808594 271.601562 5.378906 C 271.417969 4.945312 271.324219 4.492188 271.320312 4.023438 C 271.316406 3.550781 271.402344 3.097656 271.578125 2.664062 C 271.757812 2.226562 272.007812 1.84375 272.339844 1.507812 C 272.667969 1.171875 273.050781 0.914062 273.480469 0.730469 C 276.390625 -0.503906 279.109375 -0.167969 281.628906 1.734375 C 284.152344 3.640625 285.21875 6.160156 284.832031 9.296875 L 274.605469 92.117188 C 274.21875 95.253906 272.570312 97.4375 269.660156 98.671875 C 266.75 99.90625 264.035156 99.570312 261.511719 97.664062 L 194.929688 47.394531 C 192.410156 45.492188 191.339844 42.972656 191.726562 39.835938 C 192.113281 36.699219 193.761719 34.511719 196.671875 33.277344 L 273.484375 0.730469 C 273.914062 0.546875 274.367188 0.453125 274.835938 0.449219 C 275.308594 0.445312 275.757812 0.53125 276.195312 0.707031 C 276.632812 0.882812 277.015625 1.136719 277.351562 1.46875 C 277.6875 1.796875 277.945312 2.179688 278.128906 2.609375 C 278.3125 3.042969 278.40625 3.496094 278.410156 3.964844 C 278.414062 4.4375 278.328125 4.890625 278.148438 5.324219 C 277.972656 5.761719 277.722656 6.144531 277.390625 6.480469 C 277.0625 6.816406 276.679688 7.074219 276.246094 7.257812 Z M 276.246094 7.257812 " fill-opacity="1" fill-rule="nonzero"/><path fill="#837d7d" d="M 290.257812 136.914062 C 290.257812 186.679688 227.773438 170.65625 178.027344 170.65625 C 128.277344 170.65625 75.410156 186.679688 75.410156 136.910156 C 75.410156 87.144531 128.277344 21.785156 178.027344 21.785156 C 227.773438 21.785156 290.257812 87.144531 290.257812 136.914062 Z M 290.257812 136.914062 " fill-opacity="1" fill-rule="nonzero"/><path fill="#2d1d05" d="M 98.105469 78.929688 C 98.105469 79.402344 98.015625 79.851562 97.835938 80.289062 C 97.65625 80.722656 97.398438 81.105469 97.066406 81.4375 C 96.734375 81.769531 96.351562 82.027344 95.917969 82.207031 C 95.484375 82.386719 95.03125 82.476562 94.5625 82.476562 C 94.089844 82.476562 93.640625 82.386719 93.203125 82.207031 C 92.769531 82.027344 92.386719 81.769531 92.054688 81.4375 C 91.722656 81.105469 91.464844 80.722656 91.285156 80.289062 C 91.105469 79.851562 91.015625 79.402344 91.015625 78.929688 C 91.015625 78.460938 91.105469 78.007812 91.285156 77.574219 C 91.464844 77.140625 91.722656 76.757812 92.054688 76.421875 C 92.386719 76.089844 92.769531 75.835938 93.203125 75.65625 C 93.640625 75.476562 94.089844 75.386719 94.5625 75.386719 C 95.03125 75.386719 95.484375 75.476562 95.917969 75.65625 C 96.351562 75.835938 96.734375 76.089844 97.066406 76.421875 C 97.398438 76.757812 97.65625 77.140625 97.835938 77.574219 C 98.015625 78.007812 98.105469 78.460938 98.105469 78.929688 Z M 106.015625 57.632812 C 116.386719 45.746094 127.589844 36.363281 139.628906 29.476562 C 152.726562 21.984375 165.523438 18.238281 178.027344 18.238281 C 190.664062 18.238281 204.066406 22.042969 218.226562 29.652344 C 231.371094 36.710938 243.742188 46.234375 255.34375 58.21875 C 266.886719 70.144531 276.066406 82.847656 282.878906 96.328125 C 290.160156 110.734375 293.800781 124.261719 293.800781 136.914062 C 293.800781 156.507812 284.484375 168.785156 265.84375 173.753906 C 258.761719 175.644531 249.734375 176.609375 238.757812 176.660156 C 232.265625 176.6875 222.074219 176.28125 208.1875 175.441406 C 194.554688 174.613281 184.503906 174.203125 178.027344 174.203125 C 171.394531 174.203125 161.429688 174.628906 148.140625 175.484375 C 135.320312 176.308594 125.992188 176.699219 120.164062 176.65625 C 110.328125 176.582031 102.289062 175.574219 96.039062 173.640625 C 79.925781 168.652344 71.867188 156.40625 71.867188 136.910156 C 71.867188 124.851562 74.691406 112.058594 80.339844 98.523438 C 80.519531 98.089844 80.777344 97.707031 81.109375 97.375 C 81.445312 97.042969 81.828125 96.789062 82.261719 96.609375 C 82.699219 96.433594 83.148438 96.34375 83.621094 96.34375 C 84.089844 96.347656 84.542969 96.4375 84.976562 96.617188 C 85.410156 96.800781 85.792969 97.058594 86.125 97.390625 C 86.453125 97.722656 86.710938 98.109375 86.886719 98.542969 C 87.066406 98.976562 87.15625 99.429688 87.15625 99.902344 C 87.152344 100.371094 87.0625 100.824219 86.878906 101.257812 C 81.597656 113.914062 78.957031 125.800781 78.957031 136.910156 C 78.957031 152.921875 85.347656 162.90625 98.136719 166.867188 C 103.71875 168.59375 111.078125 169.496094 120.214844 169.5625 C 125.878906 169.609375 135.035156 169.222656 147.6875 168.40625 C 161.128906 167.542969 171.242188 167.109375 178.027344 167.109375 C 184.644531 167.109375 194.839844 167.527344 208.613281 168.359375 C 222.351562 169.191406 232.390625 169.59375 238.730469 169.566406 C 249.09375 169.523438 257.527344 168.632812 264.019531 166.902344 C 279.148438 162.871094 286.710938 152.875 286.710938 136.914062 C 286.710938 125.386719 283.328125 112.925781 276.554688 99.527344 C 270.0625 86.6875 261.296875 74.5625 250.25 63.152344 C 239.160156 51.695312 227.367188 42.613281 214.875 35.898438 C 201.757812 28.855469 189.476562 25.332031 178.027344 25.332031 C 166.78125 25.332031 155.152344 28.765625 143.148438 35.632812 C 131.800781 42.121094 121.203125 51.011719 111.355469 62.296875 C 111.046875 62.652344 110.683594 62.933594 110.261719 63.140625 C 109.839844 63.351562 109.394531 63.472656 108.925781 63.503906 C 108.457031 63.535156 108 63.476562 107.554688 63.324219 C 107.109375 63.175781 106.710938 62.945312 106.355469 62.636719 C 106 62.328125 105.71875 61.960938 105.511719 61.542969 C 105.300781 61.121094 105.183594 60.675781 105.152344 60.207031 C 105.117188 59.738281 105.175781 59.277344 105.328125 58.832031 C 105.476562 58.386719 105.707031 57.988281 106.015625 57.632812 Z M 106.015625 57.632812 " fill-opacity="1" fill-rule="nonzero"/><path fill="#2d1d05" d="M 198.949219 128.21875 C 198.949219 134.121094 191.375 128.21875 182.03125 128.21875 C 172.6875 128.21875 165.113281 134.121094 165.113281 128.21875 C 165.113281 122.320312 172.6875 117.535156 182.03125 117.535156 C 191.375 117.535156 198.949219 122.320312 198.949219 128.21875 Z M 198.949219 128.21875 " fill-opacity="1" fill-rule="nonzero"/><path stroke-linecap="round" transform="matrix(1.181467, 0, 0, 1.18192, -70.476598, -54.836046)" fill="none" stroke-linejoin="round" d="M 289.963291 151.779144 L 333.404384 151.779144 " stroke="#2d1d05" stroke-width="6" stroke-opacity="1" stroke-miterlimit="10"/><path stroke-linecap="round" transform="matrix(1.181467, 0, 0, 1.18192, -70.476598, -54.836046)" fill="none" stroke-linejoin="round" d="M 289.963291 165.789061 L 333.404384 165.789061 " stroke="#2d1d05" stroke-width="6" stroke-opacity="1" stroke-miterlimit="10"/><path stroke-linecap="round" transform="matrix(1.181467, 0, 0, 1.18192, -70.476598, -54.836046)" fill="none" stroke-linejoin="round" d="M 289.963291 179.802282 L 333.404384 179.802282 " stroke="#2d1d05" stroke-width="6" stroke-opacity="1" stroke-miterlimit="10"/><g clip-path="url(#c7117a6720)"><path stroke-linecap="round" transform="matrix(1.181467, 0, 0, 1.18192, -70.476598, -54.836046)" fill="none" stroke-linejoin="round" d="M 91.798641 151.779144 L 135.236427 151.779144 " stroke="#2d1d05" stroke-width="6" stroke-opacity="1" stroke-miterlimit="10"/></g><g clip-path="url(#871a219e17)"><path stroke-linecap="round" transform="matrix(1.181467, 0, 0, 1.18192, -70.476598, -54.836046)" fill="none" stroke-linejoin="round" d="M 91.798641 165.789061 L 135.236427 165.789061 " stroke="#2d1d05" stroke-width="6" stroke-opacity="1" stroke-miterlimit="10"/></g><g clip-path="url(#3e10eb226c)"><path stroke-linecap="round" transform="matrix(1.181467, 0, 0, 1.18192, -70.476598, -54.836046)" fill="none" stroke-linejoin="round" d="M 91.798641 179.802282 L 135.236427 179.802282 " stroke="#2d1d05" stroke-width="6" stroke-opacity="1" stroke-miterlimit="10"/></g><path fill="#2d1d05" d="M 151.492188 88.621094 C 151.492188 89.964844 151.4375 91.292969 151.332031 92.609375 C 151.226562 93.925781 151.070312 95.203125 150.863281 96.445312 C 150.65625 97.683594 150.402344 98.863281 150.097656 99.980469 C 149.796875 101.09375 149.457031 102.128906 149.074219 103.078125 C 148.6875 104.027344 148.273438 104.875 147.820312 105.621094 C 147.371094 106.367188 146.894531 106.996094 146.394531 107.507812 C 145.890625 108.023438 145.375 108.410156 144.84375 108.671875 C 144.3125 108.933594 143.773438 109.066406 143.230469 109.066406 C 142.691406 109.066406 142.152344 108.933594 141.621094 108.671875 C 141.089844 108.410156 140.570312 108.023438 140.070312 107.507812 C 139.570312 106.996094 139.09375 106.367188 138.644531 105.621094 C 138.191406 104.875 137.773438 104.027344 137.390625 103.078125 C 137.007812 102.128906 136.664062 101.09375 136.363281 99.980469 C 136.0625 98.863281 135.808594 97.683594 135.601562 96.445312 C 135.394531 95.203125 135.238281 93.925781 135.132812 92.609375 C 135.023438 91.292969 134.972656 89.964844 134.972656 88.621094 C 134.972656 87.277344 135.023438 85.949219 135.132812 84.632812 C 135.238281 83.316406 135.394531 82.035156 135.601562 80.796875 C 135.808594 79.554688 136.0625 78.378906 136.363281 77.261719 C 136.664062 76.144531 137.007812 75.113281 137.390625 74.164062 C 137.773438 73.214844 138.191406 72.367188 138.644531 71.621094 C 139.09375 70.875 139.570312 70.246094 140.070312 69.730469 C 140.570312 69.21875 141.089844 68.832031 141.621094 68.570312 C 142.152344 68.308594 142.691406 68.175781 143.230469 68.175781 C 143.773438 68.175781 144.3125 68.308594 144.84375 68.570312 C 145.375 68.832031 145.890625 69.21875 146.394531 69.730469 C 146.894531 70.246094 147.371094 70.875 147.820312 71.621094 C 148.273438 72.367188 148.6875 73.214844 149.074219 74.164062 C 149.457031 75.113281 149.796875 76.144531 150.097656 77.261719 C 150.402344 78.378906 150.65625 79.554688 150.863281 80.796875 C 151.070312 82.035156 151.226562 83.316406 151.332031 84.632812 C 151.4375 85.949219 151.492188 87.277344 151.492188 88.621094 Z M 151.492188 88.621094 " fill-opacity="1" fill-rule="nonzero"/><path fill="#2d1d05" d="M 226.433594 88.621094 C 226.433594 89.964844 226.382812 91.292969 226.277344 92.609375 C 226.171875 93.925781 226.015625 95.203125 225.808594 96.445312 C 225.597656 97.683594 225.34375 98.863281 225.042969 99.980469 C 224.742188 101.09375 224.398438 102.128906 224.015625 103.078125 C 223.632812 104.027344 223.214844 104.875 222.765625 105.621094 C 222.3125 106.367188 221.835938 106.996094 221.335938 107.507812 C 220.835938 108.023438 220.320312 108.410156 219.789062 108.671875 C 219.253906 108.933594 218.71875 109.066406 218.175781 109.066406 C 217.632812 109.066406 217.097656 108.933594 216.566406 108.671875 C 216.03125 108.410156 215.515625 108.023438 215.015625 107.507812 C 214.515625 106.996094 214.039062 106.367188 213.585938 105.621094 C 213.136719 104.875 212.71875 104.027344 212.335938 103.078125 C 211.953125 102.128906 211.609375 101.09375 211.308594 99.980469 C 211.007812 98.863281 210.753906 97.683594 210.546875 96.445312 C 210.335938 95.203125 210.179688 93.925781 210.074219 92.609375 C 209.96875 91.292969 209.917969 89.964844 209.917969 88.621094 C 209.917969 87.277344 209.96875 85.949219 210.074219 84.632812 C 210.179688 83.316406 210.335938 82.035156 210.546875 80.796875 C 210.753906 79.554688 211.007812 78.378906 211.308594 77.261719 C 211.609375 76.144531 211.953125 75.113281 212.335938 74.164062 C 212.71875 73.214844 213.136719 72.367188 213.585938 71.621094 C 214.039062 70.875 214.515625 70.246094 215.015625 69.730469 C 215.515625 69.21875 216.03125 68.832031 216.566406 68.570312 C 217.097656 68.308594 217.632812 68.175781 218.175781 68.175781 C 218.71875 68.175781 219.253906 68.308594 219.789062 68.570312 C 220.320312 68.832031 220.835938 69.21875 221.335938 69.730469 C 221.835938 70.246094 222.3125 70.875 222.765625 71.621094 C 223.214844 72.367188 223.632812 73.214844 224.015625 74.164062 C 224.398438 75.113281 224.742188 76.144531 225.042969 77.261719 C 225.34375 78.378906 225.597656 79.554688 225.808594 80.796875 C 226.015625 82.035156 226.171875 83.316406 226.277344 84.632812 C 226.382812 85.949219 226.433594 87.277344 226.433594 88.621094 Z M 226.433594 88.621094 " fill-opacity="1" fill-rule="nonzero"/><path stroke-linecap="round" transform="matrix(1.181467, 0, 0, 1.18192, -70.476598, -54.836046)" fill-opacity="1" fill="#837d7d" fill-rule="nonzero" stroke-linejoin="round" d="M 244.994701 161.165358 C 254.791181 171.483584 246.439541 181.80181 235.039519 181.80181 C 223.642804 181.80181 214.401776 172.561016 214.401776 161.165358 " stroke="#2d1d05" stroke-width="6" stroke-opacity="1" stroke-miterlimit="10"/><path stroke-linecap="round" transform="matrix(1.181467, 0, 0, 1.18192, -70.476598, -54.836046)" fill-opacity="1" fill="#837d7d" fill-rule="nonzero" stroke-linejoin="round" d="M 183.812158 161.165358 C 174.015678 171.483584 182.370624 181.80181 193.76734 181.80181 C 205.164056 181.80181 214.405083 172.561016 214.405083 161.165358 " stroke="#2d1d05" stroke-width="6" stroke-opacity="1" stroke-miterlimit="10"/></svg>