<svg xmlns="http://www.w3.org/2000/svg" xmlns:xlink="http://www.w3.org/1999/xlink" width="500" zoomAndPan="magnify" viewBox="0 0 375 374.999991" height="500" preserveAspectRatio="xMidYMid meet" version="1.0"><defs><clipPath id="d964e7e8ea"><path d="M 31.5 121 L 90 121 L 90 129 L 31.5 129 Z M 31.5 121 " clip-rule="nonzero"/></clipPath><clipPath id="304f494b66"><path d="M 31.5 137 L 90 137 L 90 145 L 31.5 145 Z M 31.5 137 " clip-rule="nonzero"/></clipPath><clipPath id="1f276efd19"><path d="M 31.5 154 L 90 154 L 90 162 L 31.5 162 Z M 31.5 154 " clip-rule="nonzero"/></clipPath></defs><path fill="#ffffff" d="M 190.761719 139.617188 C 246.179688 137.375 294.296875 214.652344 296.539062 270.089844 C 298.78125 325.527344 255.671875 372.285156 200.257812 374.527344 C 144.84375 376.769531 118.714844 333.375 115 278.015625 C 107.332031 163.605469 135.347656 141.859375 190.761719 139.617188 Z M 190.761719 139.617188 " fill-opacity="1" fill-rule="nonzero"/><path fill="#2d1d05" d="M 224.464844 371.539062 C 224.464844 372.007812 224.375 372.460938 224.195312 372.894531 C 224.015625 373.328125 223.761719 373.710938 223.429688 374.042969 C 223.09375 374.378906 222.710938 374.632812 222.277344 374.8125 C 221.84375 374.992188 221.390625 375.082031 220.921875 375.082031 C 220.453125 375.082031 220 374.992188 219.566406 374.8125 C 219.132812 374.632812 218.746094 374.378906 218.414062 374.042969 C 218.082031 373.710938 217.828125 373.328125 217.648438 372.894531 C 217.46875 372.460938 217.378906 372.007812 217.378906 371.539062 C 217.378906 371.066406 217.46875 370.613281 217.648438 370.179688 C 217.828125 369.746094 218.082031 369.363281 218.414062 369.03125 C 218.746094 368.699219 219.132812 368.441406 219.566406 368.261719 C 220 368.082031 220.453125 367.992188 220.921875 367.992188 C 221.390625 367.992188 221.84375 368.082031 222.277344 368.261719 C 222.710938 368.441406 223.09375 368.699219 223.429688 369.03125 C 223.761719 369.363281 224.015625 369.746094 224.195312 370.179688 C 224.375 370.613281 224.464844 371.066406 224.464844 371.539062 Z M 197.511719 378.144531 C 170.871094 378.492188 149.945312 368.824219 134.734375 349.144531 C 121.21875 331.65625 113.460938 308.027344 111.464844 278.253906 C 108.492188 233.902344 110.992188 201.015625 118.960938 179.585938 C 126.4375 159.484375 139.898438 146.503906 159.335938 140.644531 C 159.789062 140.507812 160.246094 140.464844 160.714844 140.511719 C 161.183594 140.558594 161.621094 140.691406 162.035156 140.914062 C 162.449219 141.136719 162.804688 141.429688 163.105469 141.792969 C 163.402344 142.160156 163.617188 142.566406 163.753906 143.015625 C 163.890625 143.464844 163.933594 143.925781 163.886719 144.394531 C 163.839844 144.859375 163.707031 145.300781 163.484375 145.714844 C 163.261719 146.128906 162.96875 146.488281 162.605469 146.785156 C 162.238281 147.082031 161.832031 147.296875 161.382812 147.433594 C 144.191406 152.617188 132.265625 164.160156 125.605469 182.058594 C 117.988281 202.535156 115.632812 234.441406 118.539062 277.78125 C 120.4375 306.117188 127.707031 328.457031 140.34375 344.808594 C 154.109375 362.621094 173.136719 371.367188 197.417969 371.054688 C 197.890625 371.050781 198.34375 371.132812 198.777344 371.308594 C 199.214844 371.480469 199.601562 371.734375 199.9375 372.0625 C 200.273438 372.390625 200.535156 372.769531 200.722656 373.203125 C 200.90625 373.632812 201.003906 374.085938 201.007812 374.554688 C 201.015625 375.023438 200.929688 375.476562 200.757812 375.914062 C 200.582031 376.351562 200.332031 376.738281 200.003906 377.074219 C 199.675781 377.410156 199.296875 377.671875 198.863281 377.859375 C 198.433594 378.042969 197.980469 378.140625 197.511719 378.144531 Z M 187.105469 140.035156 C 187.105469 140.507812 187.015625 140.957031 186.835938 141.394531 C 186.65625 141.828125 186.398438 142.210938 186.066406 142.542969 C 185.734375 142.875 185.351562 143.132812 184.917969 143.3125 C 184.484375 143.492188 184.03125 143.582031 183.5625 143.582031 C 183.089844 143.582031 182.640625 143.492188 182.203125 143.3125 C 181.769531 143.132812 181.386719 142.875 181.054688 142.542969 C 180.722656 142.210938 180.464844 141.828125 180.285156 141.394531 C 180.105469 140.957031 180.015625 140.507812 180.015625 140.035156 C 180.015625 139.566406 180.105469 139.113281 180.285156 138.679688 C 180.464844 138.246094 180.722656 137.859375 181.054688 137.527344 C 181.386719 137.195312 181.769531 136.941406 182.203125 136.761719 C 182.640625 136.582031 183.089844 136.492188 183.5625 136.492188 C 184.03125 136.492188 184.484375 136.582031 184.917969 136.761719 C 185.351562 136.941406 185.734375 137.195312 186.066406 137.527344 C 186.398438 137.859375 186.65625 138.246094 186.835938 138.679688 C 187.015625 139.113281 187.105469 139.566406 187.105469 140.035156 Z M 190.621094 136.074219 C 204.613281 135.507812 218.488281 139.570312 232.246094 148.265625 C 244.601562 156.070312 256 167.019531 266.441406 181.113281 C 276.253906 194.363281 284.164062 208.90625 290.171875 224.742188 C 296.203125 240.636719 299.503906 255.707031 300.082031 269.945312 C 300.90625 290.347656 296.164062 309.304688 285.859375 326.824219 C 275.828125 343.878906 262.078125 357.011719 244.613281 366.214844 C 244.199219 366.433594 243.757812 366.566406 243.289062 366.609375 C 242.820312 366.652344 242.363281 366.605469 241.914062 366.464844 C 241.464844 366.324219 241.058594 366.105469 240.695312 365.804688 C 240.335938 365.503906 240.042969 365.148438 239.824219 364.730469 C 239.605469 364.316406 239.476562 363.871094 239.433594 363.40625 C 239.390625 362.9375 239.4375 362.476562 239.574219 362.027344 C 239.714844 361.578125 239.933594 361.175781 240.234375 360.8125 C 240.535156 360.449219 240.894531 360.160156 241.308594 359.941406 C 257.585938 351.363281 270.398438 339.125 279.75 323.226562 C 289.351562 306.90625 293.765625 289.242188 292.996094 270.234375 C 292.453125 256.761719 289.300781 242.4375 283.546875 227.257812 C 277.769531 212.035156 270.167969 198.058594 260.742188 185.335938 C 250.832031 171.953125 240.070312 161.59375 228.460938 154.257812 C 215.945312 146.351562 203.429688 142.652344 190.90625 143.160156 C 190.4375 143.179688 189.980469 143.105469 189.539062 142.945312 C 189.097656 142.78125 188.707031 142.542969 188.359375 142.222656 C 188.015625 141.90625 187.742188 141.53125 187.546875 141.105469 C 187.347656 140.679688 187.242188 140.230469 187.222656 139.761719 C 187.203125 139.289062 187.273438 138.835938 187.4375 138.394531 C 187.597656 137.953125 187.839844 137.558594 188.15625 137.214844 C 188.476562 136.867188 188.847656 136.597656 189.277344 136.398438 C 189.703125 136.203125 190.148438 136.09375 190.621094 136.074219 Z M 190.621094 136.074219 " fill-opacity="1" fill-rule="nonzero"/><path stroke-linecap="round" transform="matrix(1.181467, 0, 0, 1.18192, -73.476598, -54.836046)" fill-opacity="1" fill="#ffffff" fill-rule="nonzero" stroke-linejoin="round" d="M 260.243222 319.534591 L 258.933939 358.536956 C 258.606618 368.323076 250.331022 376.060092 240.547766 375.732897 C 230.761205 375.402396 223.024531 367.129969 223.351852 357.343849 L 220.753123 297.414192 " stroke="#2d1d05" stroke-width="6" stroke-opacity="1" stroke-miterlimit="10"/><path stroke-linecap="round" transform="matrix(1.181467, 0, 0, 1.18192, -73.476598, -54.836046)" fill-opacity="1" fill="#ffffff" fill-rule="nonzero" stroke-linejoin="round" d="M 195.112992 292.74422 L 196.309862 344.999655 C 196.610733 354.785775 188.847609 363.038372 179.064353 363.335823 C 169.277792 363.636578 161.02534 355.876426 160.754225 348.843376 L 159.557355 231.479341 " stroke="#2d1d05" stroke-width="6" stroke-opacity="1" stroke-miterlimit="10"/><path fill="#ffffff" d="M 294.085938 362.96875 C 242.152344 412.492188 187.875 383.78125 252.957031 344.71875 C 304.511719 313.769531 293.769531 274.851562 294.914062 262.351562 C 296.347656 246.757812 337.378906 321.683594 294.085938 362.96875 Z M 294.085938 362.96875 " fill-opacity="1" fill-rule="nonzero"/><path fill="#2d1d05" d="M 311.667969 342.929688 C 311.667969 343.402344 311.578125 343.855469 311.398438 344.289062 C 311.21875 344.722656 310.960938 345.105469 310.628906 345.4375 C 310.296875 345.769531 309.914062 346.027344 309.480469 346.207031 C 309.046875 346.386719 308.59375 346.476562 308.125 346.476562 C 307.652344 346.476562 307.199219 346.386719 306.765625 346.207031 C 306.332031 346.027344 305.949219 345.769531 305.617188 345.4375 C 305.285156 345.105469 305.027344 344.722656 304.847656 344.289062 C 304.667969 343.855469 304.578125 343.402344 304.578125 342.929688 C 304.578125 342.460938 304.667969 342.007812 304.847656 341.574219 C 305.027344 341.140625 305.285156 340.757812 305.617188 340.425781 C 305.949219 340.089844 306.332031 339.835938 306.765625 339.65625 C 307.199219 339.476562 307.652344 339.386719 308.125 339.386719 C 308.59375 339.386719 309.046875 339.476562 309.480469 339.65625 C 309.914062 339.835938 310.296875 340.089844 310.628906 340.425781 C 310.960938 340.757812 311.21875 341.140625 311.398438 341.574219 C 311.578125 342.007812 311.667969 342.460938 311.667969 342.929688 Z M 297.261719 364.828125 C 297.019531 365.0625 296.777344 365.300781 296.53125 365.535156 C 284.039062 377.445312 271.089844 385.5625 257.683594 389.878906 C 245.449219 393.816406 235.582031 393.9375 228.074219 390.246094 C 224.132812 388.304688 221.546875 385.507812 220.316406 381.847656 C 219.066406 378.136719 219.421875 374.050781 221.378906 369.589844 C 225.371094 360.492188 235.289062 351.1875 251.132812 341.675781 C 269.460938 330.675781 281.523438 317.546875 287.328125 302.285156 C 290.550781 293.800781 291.914062 282.953125 291.40625 269.738281 C 291.265625 265.992188 291.257812 263.421875 291.386719 262.027344 C 291.6875 258.742188 293.152344 256.972656 295.78125 256.722656 C 297.585938 256.550781 299.402344 257.441406 301.226562 259.390625 C 303.753906 262.089844 306.316406 266.464844 308.910156 272.511719 C 315.648438 288.207031 318.398438 304.144531 317.164062 320.328125 C 317.128906 320.796875 317.003906 321.242188 316.789062 321.660156 C 316.578125 322.078125 316.292969 322.441406 315.9375 322.75 C 315.582031 323.054688 315.179688 323.28125 314.730469 323.425781 C 314.285156 323.574219 313.828125 323.628906 313.359375 323.59375 C 312.890625 323.558594 312.445312 323.433594 312.027344 323.21875 C 311.609375 323.007812 311.246094 322.722656 310.9375 322.367188 C 310.632812 322.011719 310.40625 321.609375 310.261719 321.160156 C 310.113281 320.714844 310.058594 320.257812 310.09375 319.789062 C 311.242188 304.761719 308.675781 289.9375 302.398438 275.3125 C 300.128906 270.023438 298.011719 266.332031 296.050781 264.238281 C 295.757812 263.921875 295.535156 263.71875 295.375 263.617188 C 295.621094 263.773438 295.980469 263.828125 296.453125 263.78125 C 297.324219 263.699219 297.964844 263.308594 298.375 262.613281 L 298.445312 262.675781 C 298.34375 263.765625 298.359375 266.03125 298.492188 269.464844 C 299.035156 283.644531 297.519531 295.425781 293.953125 304.808594 C 287.566406 321.597656 274.511719 335.914062 254.777344 347.757812 C 240.226562 356.492188 231.253906 364.722656 227.867188 372.4375 C 225.511719 377.8125 226.621094 381.625 231.203125 383.882812 C 236.996094 386.730469 245.097656 386.480469 255.511719 383.128906 C 267.886719 379.140625 279.929688 371.566406 291.640625 360.402344 C 291.859375 360.191406 292.078125 359.980469 292.292969 359.765625 C 292.628906 359.4375 293.015625 359.183594 293.453125 359.007812 C 293.886719 358.832031 294.339844 358.746094 294.808594 358.75 C 295.28125 358.753906 295.730469 358.847656 296.164062 359.035156 C 296.597656 359.21875 296.976562 359.476562 297.308594 359.8125 C 297.636719 360.148438 297.890625 360.535156 298.066406 360.96875 C 298.242188 361.40625 298.328125 361.859375 298.320312 362.328125 C 298.316406 362.800781 298.222656 363.25 298.039062 363.683594 C 297.855469 364.117188 297.597656 364.496094 297.261719 364.828125 Z M 297.261719 364.828125 " fill-opacity="1" fill-rule="nonzero"/><path fill="#f7cdd0" d="M 80.074219 3.992188 L 156.882812 36.542969 C 160.191406 37.945312 160.742188 42.402344 157.875 44.566406 L 91.292969 94.835938 C 88.425781 97 84.292969 95.246094 83.851562 91.683594 L 73.625 8.863281 C 73.183594 5.296875 76.769531 2.59375 80.074219 3.992188 Z M 80.074219 3.992188 " fill-opacity="1" fill-rule="nonzero"/><path fill="#2d1d05" d="M 81.457031 0.730469 L 158.265625 33.277344 C 161.175781 34.511719 162.824219 36.699219 163.210938 39.835938 C 163.597656 42.972656 162.53125 45.492188 160.011719 47.394531 L 93.425781 97.664062 C 90.90625 99.570312 88.1875 99.90625 85.28125 98.671875 C 82.371094 97.4375 80.722656 95.253906 80.335938 92.117188 L 70.109375 9.296875 C 69.71875 6.160156 70.789062 3.640625 73.308594 1.734375 C 75.832031 -0.167969 78.546875 -0.503906 81.457031 0.730469 C 81.890625 0.914062 82.273438 1.171875 82.601562 1.507812 C 82.929688 1.84375 83.183594 2.226562 83.359375 2.664062 C 83.535156 3.097656 83.625 3.550781 83.621094 4.023438 C 83.617188 4.492188 83.523438 4.945312 83.339844 5.378906 C 83.15625 5.808594 82.894531 6.191406 82.5625 6.519531 C 82.226562 6.851562 81.839844 7.105469 81.40625 7.28125 C 80.96875 7.457031 80.515625 7.542969 80.046875 7.539062 C 79.578125 7.535156 79.125 7.441406 78.691406 7.257812 C 78.296875 7.089844 77.925781 7.136719 77.578125 7.394531 C 77.234375 7.65625 77.089844 8 77.144531 8.425781 L 87.371094 91.246094 C 87.421875 91.675781 87.648438 91.972656 88.046875 92.140625 C 88.441406 92.3125 88.8125 92.265625 89.15625 92.003906 L 155.738281 41.734375 C 156.082031 41.476562 156.230469 41.132812 156.175781 40.703125 C 156.125 40.277344 155.898438 39.976562 155.503906 39.808594 L 78.691406 7.257812 C 78.261719 7.074219 77.878906 6.816406 77.550781 6.480469 C 77.21875 6.144531 76.964844 5.761719 76.789062 5.324219 C 76.613281 4.890625 76.527344 4.4375 76.53125 3.964844 C 76.535156 3.496094 76.628906 3.042969 76.8125 2.609375 C 76.996094 2.179688 77.253906 1.796875 77.589844 1.464844 C 77.925781 1.136719 78.308594 0.882812 78.746094 0.707031 C 79.179688 0.53125 79.632812 0.445312 80.101562 0.449219 C 80.574219 0.453125 81.023438 0.546875 81.457031 0.730469 Z M 81.457031 0.730469 " fill-opacity="1" fill-rule="nonzero"/><path fill="#f7cdd0" d="M 271.863281 3.992188 L 195.054688 36.542969 C 191.75 37.945312 191.199219 42.402344 194.066406 44.566406 L 260.648438 94.835938 C 263.515625 97 267.648438 95.246094 268.089844 91.683594 L 278.316406 8.863281 C 278.753906 5.296875 275.171875 2.59375 271.863281 3.992188 Z M 271.863281 3.992188 " fill-opacity="1" fill-rule="nonzero"/><path fill="#2d1d05" d="M 273.246094 7.257812 L 196.4375 39.808594 C 196.039062 39.976562 195.816406 40.277344 195.761719 40.703125 C 195.710938 41.132812 195.855469 41.476562 196.199219 41.734375 L 262.785156 92.003906 C 263.128906 92.265625 263.496094 92.3125 263.894531 92.140625 C 264.292969 91.972656 264.515625 91.675781 264.570312 91.246094 L 274.796875 8.425781 C 274.851562 8 274.703125 7.65625 274.359375 7.394531 C 274.015625 7.136719 273.644531 7.089844 273.246094 7.257812 C 272.816406 7.441406 272.363281 7.535156 271.894531 7.539062 C 271.421875 7.542969 270.972656 7.457031 270.535156 7.28125 C 270.097656 7.105469 269.714844 6.851562 269.378906 6.519531 C 269.042969 6.191406 268.785156 5.808594 268.601562 5.378906 C 268.417969 4.945312 268.324219 4.492188 268.320312 4.023438 C 268.316406 3.550781 268.402344 3.097656 268.578125 2.664062 C 268.757812 2.226562 269.007812 1.84375 269.339844 1.507812 C 269.667969 1.171875 270.050781 0.914062 270.480469 0.730469 C 273.390625 -0.503906 276.109375 -0.167969 278.628906 1.734375 C 281.152344 3.640625 282.21875 6.160156 281.832031 9.296875 L 271.605469 92.117188 C 271.21875 95.253906 269.570312 97.4375 266.660156 98.671875 C 263.75 99.90625 261.035156 99.570312 258.511719 97.664062 L 191.929688 47.394531 C 189.410156 45.492188 188.339844 42.972656 188.726562 39.835938 C 189.113281 36.699219 190.761719 34.511719 193.671875 33.277344 L 270.484375 0.730469 C 270.914062 0.546875 271.367188 0.453125 271.835938 0.449219 C 272.308594 0.445312 272.757812 0.53125 273.195312 0.707031 C 273.632812 0.882812 274.015625 1.136719 274.351562 1.46875 C 274.6875 1.796875 274.945312 2.179688 275.128906 2.609375 C 275.3125 3.042969 275.40625 3.496094 275.410156 3.964844 C 275.414062 4.4375 275.328125 4.890625 275.148438 5.324219 C 274.972656 5.761719 274.722656 6.144531 274.390625 6.480469 C 274.0625 6.816406 273.679688 7.074219 273.246094 7.257812 Z M 273.246094 7.257812 " fill-opacity="1" fill-rule="nonzero"/><path fill="#ffffff" d="M 287.257812 136.914062 C 287.257812 186.679688 224.773438 170.65625 175.027344 170.65625 C 125.277344 170.65625 72.410156 186.679688 72.410156 136.910156 C 72.410156 87.144531 125.277344 21.785156 175.027344 21.785156 C 224.773438 21.785156 287.257812 87.144531 287.257812 136.914062 Z M 287.257812 136.914062 " fill-opacity="1" fill-rule="nonzero"/><path fill="#2d1d05" d="M 95.105469 78.929688 C 95.105469 79.402344 95.015625 79.851562 94.835938 80.289062 C 94.65625 80.722656 94.398438 81.105469 94.066406 81.4375 C 93.734375 81.769531 93.351562 82.027344 92.917969 82.207031 C 92.484375 82.386719 92.03125 82.476562 91.5625 82.476562 C 91.089844 82.476562 90.640625 82.386719 90.203125 82.207031 C 89.769531 82.027344 89.386719 81.769531 89.054688 81.4375 C 88.722656 81.105469 88.464844 80.722656 88.285156 80.289062 C 88.105469 79.851562 88.015625 79.402344 88.015625 78.929688 C 88.015625 78.460938 88.105469 78.007812 88.285156 77.574219 C 88.464844 77.140625 88.722656 76.757812 89.054688 76.421875 C 89.386719 76.089844 89.769531 75.835938 90.203125 75.65625 C 90.640625 75.476562 91.089844 75.386719 91.5625 75.386719 C 92.03125 75.386719 92.484375 75.476562 92.917969 75.65625 C 93.351562 75.835938 93.734375 76.089844 94.066406 76.421875 C 94.398438 76.757812 94.65625 77.140625 94.835938 77.574219 C 95.015625 78.007812 95.105469 78.460938 95.105469 78.929688 Z M 103.015625 57.632812 C 113.386719 45.746094 124.589844 36.363281 136.628906 29.476562 C 149.726562 21.984375 162.523438 18.238281 175.027344 18.238281 C 187.664062 18.238281 201.066406 22.042969 215.226562 29.652344 C 228.371094 36.710938 240.742188 46.234375 252.34375 58.21875 C 263.886719 70.144531 273.066406 82.847656 279.878906 96.328125 C 287.160156 110.734375 290.800781 124.261719 290.800781 136.914062 C 290.800781 156.507812 281.484375 168.785156 262.84375 173.753906 C 255.761719 175.644531 246.734375 176.609375 235.757812 176.660156 C 229.265625 176.6875 219.074219 176.28125 205.1875 175.441406 C 191.554688 174.613281 181.503906 174.203125 175.027344 174.203125 C 168.394531 174.203125 158.429688 174.628906 145.140625 175.484375 C 132.320312 176.308594 122.992188 176.699219 117.164062 176.65625 C 107.328125 176.582031 99.289062 175.574219 93.039062 173.640625 C 76.925781 168.652344 68.867188 156.40625 68.867188 136.910156 C 68.867188 124.851562 71.691406 112.058594 77.339844 98.523438 C 77.519531 98.089844 77.777344 97.707031 78.109375 97.375 C 78.445312 97.042969 78.828125 96.789062 79.261719 96.609375 C 79.699219 96.433594 80.148438 96.34375 80.621094 96.34375 C 81.089844 96.347656 81.542969 96.4375 81.976562 96.617188 C 82.410156 96.800781 82.792969 97.058594 83.125 97.390625 C 83.453125 97.722656 83.710938 98.109375 83.886719 98.542969 C 84.066406 98.976562 84.15625 99.429688 84.15625 99.902344 C 84.152344 100.371094 84.0625 100.824219 83.878906 101.257812 C 78.597656 113.914062 75.957031 125.800781 75.957031 136.910156 C 75.957031 152.921875 82.347656 162.90625 95.136719 166.867188 C 100.71875 168.59375 108.078125 169.496094 117.214844 169.5625 C 122.878906 169.609375 132.035156 169.222656 144.6875 168.40625 C 158.128906 167.542969 168.242188 167.109375 175.027344 167.109375 C 181.644531 167.109375 191.839844 167.527344 205.613281 168.359375 C 219.351562 169.191406 229.390625 169.59375 235.730469 169.566406 C 246.09375 169.523438 254.527344 168.632812 261.019531 166.902344 C 276.148438 162.871094 283.710938 152.875 283.710938 136.914062 C 283.710938 125.386719 280.328125 112.925781 273.554688 99.527344 C 267.0625 86.6875 258.296875 74.5625 247.25 63.152344 C 236.160156 51.695312 224.367188 42.613281 211.875 35.898438 C 198.757812 28.855469 186.476562 25.332031 175.027344 25.332031 C 163.78125 25.332031 152.152344 28.765625 140.148438 35.632812 C 128.800781 42.121094 118.203125 51.011719 108.355469 62.296875 C 108.046875 62.652344 107.683594 62.933594 107.261719 63.140625 C 106.839844 63.351562 106.394531 63.472656 105.925781 63.503906 C 105.457031 63.535156 105 63.476562 104.554688 63.324219 C 104.109375 63.175781 103.710938 62.945312 103.355469 62.636719 C 103 62.328125 102.71875 61.960938 102.511719 61.542969 C 102.300781 61.121094 102.183594 60.675781 102.152344 60.207031 C 102.117188 59.738281 102.175781 59.277344 102.328125 58.832031 C 102.476562 58.386719 102.707031 57.988281 103.015625 57.632812 Z M 103.015625 57.632812 " fill-opacity="1" fill-rule="nonzero"/><path fill="#2d1d05" d="M 195.949219 128.21875 C 195.949219 134.121094 188.375 128.21875 179.03125 128.21875 C 169.6875 128.21875 162.113281 134.121094 162.113281 128.21875 C 162.113281 122.320312 169.6875 117.535156 179.03125 117.535156 C 188.375 117.535156 195.949219 122.320312 195.949219 128.21875 Z M 195.949219 128.21875 " fill-opacity="1" fill-rule="nonzero"/><path stroke-linecap="round" transform="matrix(1.181467, 0, 0, 1.18192, -73.476598, -54.836046)" fill="none" stroke-linejoin="round" d="M 289.963291 151.779144 L 333.404383 151.779144 " stroke="#2d1d05" stroke-width="6" stroke-opacity="1" stroke-miterlimit="10"/><path stroke-linecap="round" transform="matrix(1.181467, 0, 0, 1.18192, -73.476598, -54.836046)" fill="none" stroke-linejoin="round" d="M 289.963291 165.789061 L 333.404383 165.789061 " stroke="#2d1d05" stroke-width="6" stroke-opacity="1" stroke-miterlimit="10"/><path stroke-linecap="round" transform="matrix(1.181467, 0, 0, 1.18192, -73.476598, -54.836046)" fill="none" stroke-linejoin="round" d="M 289.963291 179.802282 L 333.404383 179.802282 " stroke="#2d1d05" stroke-width="6" stroke-opacity="1" stroke-miterlimit="10"/><g clip-path="url(#d964e7e8ea)"><path stroke-linecap="round" transform="matrix(1.181467, 0, 0, 1.18192, -73.476598, -54.836046)" fill="none" stroke-linejoin="round" d="M 91.79864 151.779144 L 135.236427 151.779144 " stroke="#2d1d05" stroke-width="6" stroke-opacity="1" stroke-miterlimit="10"/></g><g clip-path="url(#304f494b66)"><path stroke-linecap="round" transform="matrix(1.181467, 0, 0, 1.18192, -73.476598, -54.836046)" fill="none" stroke-linejoin="round" d="M 91.79864 165.789061 L 135.236427 165.789061 " stroke="#2d1d05" stroke-width="6" stroke-opacity="1" stroke-miterlimit="10"/></g><g clip-path="url(#1f276efd19)"><path stroke-linecap="round" transform="matrix(1.181467, 0, 0, 1.18192, -73.476598, -54.836046)" fill="none" stroke-linejoin="round" d="M 91.79864 179.802282 L 135.236427 179.802282 " stroke="#2d1d05" stroke-width="6" stroke-opacity="1" stroke-miterlimit="10"/></g><path fill="#2d1d05" d="M 148.492188 88.621094 C 148.492188 89.964844 148.4375 91.292969 148.332031 92.609375 C 148.226562 93.925781 148.070312 95.203125 147.863281 96.445312 C 147.65625 97.683594 147.402344 98.863281 147.097656 99.980469 C 146.796875 101.09375 146.457031 102.128906 146.074219 103.078125 C 145.6875 104.027344 145.273438 104.875 144.820312 105.621094 C 144.371094 106.367188 143.894531 106.996094 143.394531 107.507812 C 142.890625 108.023438 142.375 108.410156 141.84375 108.671875 C 141.3125 108.933594 140.773438 109.066406 140.230469 109.066406 C 139.691406 109.066406 139.152344 108.933594 138.621094 108.671875 C 138.089844 108.410156 137.570312 108.023438 137.070312 107.507812 C 136.570312 106.996094 136.09375 106.367188 135.644531 105.621094 C 135.191406 104.875 134.773438 104.027344 134.390625 103.078125 C 134.007812 102.128906 133.664062 101.09375 133.363281 99.980469 C 133.0625 98.863281 132.808594 97.683594 132.601562 96.445312 C 132.394531 95.203125 132.238281 93.925781 132.132812 92.609375 C 132.023438 91.292969 131.972656 89.964844 131.972656 88.621094 C 131.972656 87.277344 132.023438 85.949219 132.132812 84.632812 C 132.238281 83.316406 132.394531 82.035156 132.601562 80.796875 C 132.808594 79.554688 133.0625 78.378906 133.363281 77.261719 C 133.664062 76.144531 134.007812 75.113281 134.390625 74.164062 C 134.773438 73.214844 135.191406 72.367188 135.644531 71.621094 C 136.09375 70.875 136.570312 70.246094 137.070312 69.730469 C 137.570312 69.21875 138.089844 68.832031 138.621094 68.570312 C 139.152344 68.308594 139.691406 68.175781 140.230469 68.175781 C 140.773438 68.175781 141.3125 68.308594 141.84375 68.570312 C 142.375 68.832031 142.890625 69.21875 143.394531 69.730469 C 143.894531 70.246094 144.371094 70.875 144.820312 71.621094 C 145.273438 72.367188 145.6875 73.214844 146.074219 74.164062 C 146.457031 75.113281 146.796875 76.144531 147.097656 77.261719 C 147.402344 78.378906 147.65625 79.554688 147.863281 80.796875 C 148.070312 82.035156 148.226562 83.316406 148.332031 84.632812 C 148.4375 85.949219 148.492188 87.277344 148.492188 88.621094 Z M 148.492188 88.621094 " fill-opacity="1" fill-rule="nonzero"/><path fill="#2d1d05" d="M 223.433594 88.621094 C 223.433594 89.964844 223.382812 91.292969 223.277344 92.609375 C 223.171875 93.925781 223.015625 95.203125 222.808594 96.445312 C 222.597656 97.683594 222.34375 98.863281 222.042969 99.980469 C 221.742188 101.09375 221.398438 102.128906 221.015625 103.078125 C 220.632812 104.027344 220.214844 104.875 219.765625 105.621094 C 219.3125 106.367188 218.835938 106.996094 218.335938 107.507812 C 217.835938 108.023438 217.320312 108.410156 216.789062 108.671875 C 216.253906 108.933594 215.71875 109.066406 215.175781 109.066406 C 214.632812 109.066406 214.097656 108.933594 213.566406 108.671875 C 213.03125 108.410156 212.515625 108.023438 212.015625 107.507812 C 211.515625 106.996094 211.039062 106.367188 210.585938 105.621094 C 210.136719 104.875 209.71875 104.027344 209.335938 103.078125 C 208.953125 102.128906 208.609375 101.09375 208.308594 99.980469 C 208.007812 98.863281 207.753906 97.683594 207.546875 96.445312 C 207.335938 95.203125 207.179688 93.925781 207.074219 92.609375 C 206.96875 91.292969 206.917969 89.964844 206.917969 88.621094 C 206.917969 87.277344 206.96875 85.949219 207.074219 84.632812 C 207.179688 83.316406 207.335938 82.035156 207.546875 80.796875 C 207.753906 79.554688 208.007812 78.378906 208.308594 77.261719 C 208.609375 76.144531 208.953125 75.113281 209.335938 74.164062 C 209.71875 73.214844 210.136719 72.367188 210.585938 71.621094 C 211.039062 70.875 211.515625 70.246094 212.015625 69.730469 C 212.515625 69.21875 213.03125 68.832031 213.566406 68.570312 C 214.097656 68.308594 214.632812 68.175781 215.175781 68.175781 C 215.71875 68.175781 216.253906 68.308594 216.789062 68.570312 C 217.320312 68.832031 217.835938 69.21875 218.335938 69.730469 C 218.835938 70.246094 219.3125 70.875 219.765625 71.621094 C 220.214844 72.367188 220.632812 73.214844 221.015625 74.164062 C 221.398438 75.113281 221.742188 76.144531 222.042969 77.261719 C 222.34375 78.378906 222.597656 79.554688 222.808594 80.796875 C 223.015625 82.035156 223.171875 83.316406 223.277344 84.632812 C 223.382812 85.949219 223.433594 87.277344 223.433594 88.621094 Z M 223.433594 88.621094 " fill-opacity="1" fill-rule="nonzero"/><path stroke-linecap="round" transform="matrix(1.181467, 0, 0, 1.18192, -73.476598, -54.836046)" fill-opacity="1" fill="#ffffff" fill-rule="nonzero" stroke-linejoin="round" d="M 244.994701 161.165358 C 254.791181 171.483584 246.439541 181.80181 235.039519 181.80181 C 223.642803 181.80181 214.401776 172.561016 214.401776 161.165358 " stroke="#2d1d05" stroke-width="6" stroke-opacity="1" stroke-miterlimit="10"/><path stroke-linecap="round" transform="matrix(1.181467, 0, 0, 1.18192, -73.476598, -54.836046)" fill-opacity="1" fill="#ffffff" fill-rule="nonzero" stroke-linejoin="round" d="M 183.812158 161.165358 C 174.015678 171.483584 182.370624 181.80181 193.76734 181.80181 C 205.164056 181.80181 214.405083 172.561016 214.405083 161.165358 " stroke="#2d1d05" stroke-width="6" stroke-opacity="1" stroke-miterlimit="10"/></svg>